<svg id="SvgjsSvg1011" width="288" height="288" xmlns="http://www.w3.org/2000/svg" version="1.1" xmlns:xlink="http://www.w3.org/1999/xlink" xmlns:svgjs="http://svgjs.com/svgjs"><defs id="SvgjsDefs1012"></defs><g id="SvgjsG1013"><svg xmlns="http://www.w3.org/2000/svg" viewBox="0 0 20 20" width="288" height="288"><path fill="#ffffff" fill-rule="evenodd" d="M11.8186 2.6664C10.7439 1.77787 9.2561 1.77787 8.18145 2.6664L2.79539 7.11964C2.30425 7.52572 2 8.16727 2 8.8663V16.8739C2 17.5543 2.50443 18 3 18H5C5.55228 18 6 17.5523 6 17V13.6848C6 12.0168 7.28643 10.5587 9 10.5587H11C12.7136 10.5587 14 12.0168 14 13.6848V17C14 17.5523 14.4477 18 15 18H17C17.4956 18 18 17.5543 18 16.8739V8.8663C18 8.16727 17.6958 7.52572 17.2046 7.11965L11.8186 2.6664ZM13.093 1.12502L18.479 5.57827C19.4494 6.38059 20 7.59706 20 8.8663V16.8739C20 18.5419 18.7136 20 17 20H15C13.3431 20 12 18.6569 12 17V13.6848C12 13.0044 11.4956 12.5587 11 12.5587H9C8.50443 12.5587 8 13.0044 8 13.6848V17C8 18.6569 6.65685 20 5 20H3C1.28643 20 0 18.5419 0 16.8739V8.8663C0 7.59706 0.550588 6.38059 1.52097 5.57827L6.90703 1.12502C8.72126 -0.375008 11.2787 -0.375006 13.093 1.12502Z" clip-rule="evenodd" class="svgShape color415466-0 selectable"></path></svg></g></svg>